# xmcd CD database file
#
# Track frame offsets:
#	150
#	16575
#	40425
#	51593
#	113590
#	138060
#	154915
#	173973
#	219948
#	241229
#	264098
#	289966
#
# Disc length: 4086 seconds
#
# Revision: 0
# Processed by: cddbd v1.4PL0 Copyright (c) Steve Scherf et al.
# Submitted via: Feurio! 1.62 - http://www.feurio.com
#
DISCID=9f0ff40c
DTITLE=John Lee Hooker and Friends - Night of the Hook
DYEAR=1900
DGENRE=
TTITLE0=Mabel
TTITLE1=Serve Me Right To Suffer
TTITLE2=Boom Boom
TTITLE3=Friends Boogie
TTITLE4=Muddy Waters - Got My Mojo Workin'
TTITLE5=The Nighthawks - Bring It On Home To You
TTITLE6=The Nighthawks - Country Livin'
TTITLE7=The Nighthawks - Oh Black Night
TTITLE8=The NightHawks - Boogie Woogie Man From TN
TTITLE9=The Nighthawks - Yea Man
TTITLE10=The Nighthawks w/ John Hammond - Sweet Home Chicago
TTITLE11=The Nighthawks w/ John Hammond - You Perty Thing
EXTD=
EXTT0=
EXTT1=
EXTT2=
EXTT3=
EXTT4=
EXTT5=
EXTT6=
EXTT7=
EXTT8=
EXTT9=
EXTT10=
EXTT11=
PLAYORDER=
